<?xml version="1.0" encoding="utf-8"?>
<!-- Generator: Adobe Illustrator 24.1.1, SVG Export Plug-In . SVG Version: 6.00 Build 0)  -->
<svg version="1.1" id="Layer_1" xmlns="http://www.w3.org/2000/svg" xmlns:xlink="http://www.w3.org/1999/xlink" x="0px" y="0px"
	 viewBox="0 0 50 50" style="enable-background:new 0 0 50 50;" xml:space="preserve">
<style type="text/css">
	.st0{fill:#FFFFFF;}
</style>
<g>
	<g>
		<path class="st0" d="M46.2,37.7h-8.9V13h8.9C46.2,13,46.2,37.7,46.2,37.7z M39,36h5.4V14.8H39V36z"/>
	</g>
	<g>
		<path class="st0" d="M13.4,37.7h-9V13h9V37.7z M6.2,36h5.4V14.8H6.2V36z"/>
	</g>
	<g>
		<rect x="12.6" y="16.2" class="st0" width="12.4" height="1.8"/>
	</g>
	<g>
		<polygon class="st0" points="25.3,39.6 20.2,39.6 16.2,35 12.6,35 12.6,33.3 17,33.3 21,37.8 24.7,37.8 32.9,29.7 28,24.3 
			26,24.3 21.4,28.7 17.4,24.1 24.7,16.2 38.1,16.2 38.1,17.9 25.4,17.9 19.6,24 21.7,26.3 25.3,22.5 28.8,22.5 35.4,29.9 		"/>
	</g>
	<g>
		<rect x="30" y="33.3" class="st0" width="8" height="1.8"/>
	</g>
	<g>
		<rect x="26.2" y="31.1" transform="matrix(0.734 -0.6792 0.6792 0.734 -15.6973 27.2982)" class="st0" width="1.5" height="5.1"/>
	</g>
	<g>
		<rect x="29" y="28.4" transform="matrix(0.734 -0.6791 0.6791 0.734 -13.1276 28.4376)" class="st0" width="1.5" height="5.1"/>
	</g>
	<g>
		<rect x="23.6" y="33.8" transform="matrix(0.734 -0.6791 0.6791 0.734 -18.2144 26.216)" class="st0" width="1.5" height="5.1"/>
	</g>
</g>
</svg>
