<?xml version="1.0" encoding="utf-8"?>
<!-- Generator: Adobe Illustrator 24.1.1, SVG Export Plug-In . SVG Version: 6.00 Build 0)  -->
<svg version="1.1" id="Layer_1" xmlns="http://www.w3.org/2000/svg" xmlns:xlink="http://www.w3.org/1999/xlink" x="0px" y="0px"
	 viewBox="0 0 357.3 153.4" style="enable-background:new 0 0 357.3 153.4;" xml:space="preserve">
<style type="text/css">
	.st0{fill:#14E15F;}
	.st1{fill:#6428DC;}
</style>
<circle class="st0" cx="179.4" cy="84.9" r="52"/>
<path class="st0" d="M106.5,143.8c-7.5-1.2-12.5-8.2-11.3-15.8c1.2-7.5,8.2-12.5,15.8-11.3l13.5,2.2l-2.2,13.5
	C120.9,140,113.9,145,106.5,143.8z"/>
<path class="st0" d="M275.1,0.9c15.1,2.4,25.3,16.4,22.9,31.5c-2.4,15.1-16.4,25.3-31.5,22.9L239.2,51l4.3-27.2
	C246.3,8.7,260.3-1.4,275.1,0.9z"/>
<path class="st0" d="M116.6,58.1c-0.7-4.4,2.3-8.4,6.6-9.1c4.4-0.7,8.4,2.3,9.1,6.6l1.2,7.9l-7.9,1.2
	C121.3,65.3,117.2,62.4,116.6,58.1z"/>
<path class="st0" d="M98.5,56.1c-0.7-1.5,0-3.3,1.6-4s3.3,0,4,1.6l1.2,2.8l-2.8,1.2C100.9,58.3,99.2,57.6,98.5,56.1z"/>
<g>
	<path class="st1" d="M5,84.2c0-1.9,0.3-3.8,1-5.7c0.7-1.9,1.7-3.5,3-5c1.3-1.5,2.9-2.7,4.8-3.6c1.9-0.9,4.1-1.4,6.5-1.4
		c2.9,0,5.4,0.6,7.5,1.9c2.1,1.3,3.7,2.9,4.7,4.9l-4.7,3.2c-0.4-0.9-0.9-1.6-1.5-2.2c-0.6-0.6-1.2-1.1-1.9-1.4
		c-0.7-0.4-1.4-0.6-2.1-0.8c-0.7-0.2-1.5-0.2-2.2-0.2c-1.5,0-2.9,0.3-4,0.9c-1.1,0.6-2.1,1.4-2.8,2.4c-0.7,1-1.3,2.1-1.7,3.4
		c-0.4,1.2-0.6,2.5-0.6,3.7c0,1.4,0.2,2.7,0.7,4c0.4,1.3,1.1,2.4,1.9,3.4c0.8,1,1.8,1.7,2.9,2.3c1.1,0.6,2.4,0.9,3.7,0.9
		c0.7,0,1.4-0.1,2.2-0.3c0.8-0.2,1.5-0.5,2.2-0.8c0.7-0.4,1.3-0.9,1.9-1.5c0.6-0.6,1.1-1.3,1.4-2.2l5,2.9c-0.5,1.2-1.2,2.2-2.1,3.1
		s-2,1.7-3.1,2.3c-1.2,0.6-2.4,1.1-3.7,1.4c-1.3,0.3-2.6,0.5-3.9,0.5c-2.2,0-4.3-0.5-6.1-1.4c-1.9-0.9-3.4-2.2-4.8-3.7
		S6.8,92,6.1,90C5.3,88.1,5,86.2,5,84.2z"/>
	<path class="st1" d="M47.2,100.5c-1.9,0-3.6-0.3-5.1-1c-1.5-0.6-2.8-1.5-3.8-2.6c-1-1.1-1.8-2.4-2.4-3.8c-0.6-1.4-0.8-3-0.8-4.5
		c0-1.6,0.3-3.1,0.8-4.6c0.6-1.4,1.4-2.7,2.4-3.8c1-1.1,2.3-2,3.8-2.6c1.5-0.6,3.2-1,5.1-1s3.6,0.3,5,1c1.5,0.6,2.7,1.5,3.8,2.6
		c1,1.1,1.8,2.4,2.4,3.8c0.6,1.4,0.8,3,0.8,4.6c0,1.6-0.3,3.1-0.8,4.5c-0.6,1.4-1.4,2.7-2.4,3.8c-1,1.1-2.3,2-3.8,2.6
		C50.8,100.1,49.1,100.5,47.2,100.5z M41.2,88.5c0,1,0.2,2,0.5,2.8c0.3,0.8,0.7,1.6,1.3,2.2c0.5,0.6,1.2,1.1,1.9,1.4
		c0.7,0.3,1.5,0.5,2.4,0.5c0.9,0,1.6-0.2,2.4-0.5c0.7-0.3,1.4-0.8,1.9-1.4c0.5-0.6,1-1.4,1.3-2.2s0.5-1.8,0.5-2.8
		c0-1-0.2-1.9-0.5-2.8c-0.3-0.9-0.7-1.6-1.3-2.2c-0.5-0.6-1.2-1.1-1.9-1.4c-0.7-0.3-1.5-0.5-2.4-0.5c-0.9,0-1.6,0.2-2.4,0.5
		c-0.7,0.4-1.4,0.8-1.9,1.5c-0.5,0.6-1,1.4-1.3,2.2C41.3,86.6,41.2,87.5,41.2,88.5z"/>
	<path class="st1" d="M84.7,100h-5.9v-13c0-1.9-0.3-3.2-1-4.1c-0.6-0.9-1.5-1.3-2.7-1.3c-0.6,0-1.2,0.1-1.8,0.4
		c-0.6,0.2-1.2,0.6-1.7,1c-0.5,0.4-1,0.9-1.5,1.5c-0.4,0.6-0.8,1.2-1,1.9V100h-5.9V76.9h5.3v4.3c0.9-1.5,2.1-2.6,3.7-3.4
		c1.6-0.8,3.4-1.2,5.5-1.2c1.4,0,2.6,0.3,3.5,0.8c0.9,0.5,1.6,1.2,2.1,2.1c0.5,0.9,0.8,1.8,1,2.9c0.2,1.1,0.3,2.2,0.3,3.3V100z"/>
	<path class="st1" d="M98.9,100.2c-1.6,0-3-0.3-4.2-0.9s-2.4-1.5-3.3-2.5c-0.9-1.1-1.6-2.3-2.1-3.7c-0.5-1.4-0.7-2.9-0.7-4.5
		c0-1.7,0.3-3.2,0.8-4.7c0.5-1.4,1.3-2.7,2.2-3.8c0.9-1.1,2.1-1.9,3.4-2.6c1.3-0.6,2.8-0.9,4.4-0.9c1.8,0,3.4,0.4,4.7,1.2
		c1.4,0.8,2.5,1.9,3.4,3.2v-4.1h5.2v22c0,1.7-0.3,3.2-1,4.6s-1.5,2.5-2.7,3.4c-1.1,0.9-2.5,1.7-4.1,2.2c-1.6,0.5-3.3,0.8-5.1,0.8
		c-2.5,0-4.7-0.4-6.4-1.3c-1.7-0.8-3.2-2-4.4-3.5l3.2-3.1c0.9,1.1,2,1.9,3.3,2.6c1.3,0.6,2.8,0.9,4.3,0.9c0.9,0,1.8-0.1,2.6-0.4
		c0.8-0.3,1.6-0.6,2.2-1.2c0.6-0.5,1.2-1.2,1.5-2c0.4-0.8,0.6-1.8,0.6-2.9V96c-0.8,1.3-1.8,2.3-3.2,3.1
		C102,99.8,100.5,100.2,98.9,100.2z M100.9,95.4c0.6,0,1.3-0.1,1.9-0.3c0.6-0.2,1.1-0.5,1.6-0.8c0.5-0.4,0.9-0.8,1.3-1.2
		c0.4-0.5,0.7-1,0.9-1.5v-5.5c-0.5-1.4-1.4-2.4-2.5-3.3c-1.1-0.8-2.3-1.2-3.5-1.2c-0.9,0-1.7,0.2-2.5,0.6c-0.7,0.4-1.4,0.9-1.9,1.6
		c-0.5,0.7-0.9,1.4-1.2,2.3c-0.3,0.9-0.4,1.7-0.4,2.6c0,0.9,0.2,1.8,0.5,2.6c0.3,0.8,0.8,1.5,1.3,2.2c0.6,0.6,1.2,1.1,2,1.5
		S100,95.4,100.9,95.4z"/>
	<path class="st1" d="M131.6,82c-1.8,0-3.4,0.4-4.8,1c-1.4,0.7-2.4,1.7-3,3v14h-5.9V76.9h5.4v4.9c0.4-0.8,0.9-1.5,1.5-2.1
		c0.6-0.6,1.2-1.2,1.8-1.7c0.6-0.5,1.3-0.8,2-1.1c0.7-0.2,1.3-0.4,1.9-0.4c0.3,0,0.6,0,0.7,0s0.3,0,0.5,0V82z"/>
	<path class="st1" d="M140.9,100.5c-1.1,0-2.2-0.2-3.1-0.6s-1.8-0.9-2.5-1.5c-0.7-0.7-1.3-1.4-1.7-2.3c-0.4-0.9-0.6-1.9-0.6-2.9
		c0-1.1,0.2-2.1,0.7-3s1.2-1.7,2-2.4c0.9-0.6,1.9-1.2,3.1-1.5c1.2-0.4,2.5-0.6,4-0.6c1,0,2,0.1,3,0.3c1,0.2,1.9,0.4,2.6,0.7v-1.3
		c0-1.5-0.4-2.7-1.3-3.5c-0.9-0.8-2.2-1.2-3.9-1.2c-1.2,0-2.4,0.2-3.6,0.7c-1.2,0.4-2.4,1.1-3.6,1.9l-1.8-3.7c3-2,6.2-3,9.6-3
		c3.3,0,5.9,0.8,7.7,2.4c1.8,1.6,2.8,4,2.8,7.1v7.2c0,0.6,0.1,1.1,0.3,1.3c0.2,0.3,0.6,0.4,1.1,0.4v5c-1,0.2-1.9,0.3-2.6,0.3
		c-1.1,0-2-0.3-2.6-0.7c-0.6-0.5-1-1.2-1.1-2l-0.1-1.3c-1,1.4-2.3,2.4-3.7,3.1C144.1,100.1,142.6,100.5,140.9,100.5z M142.6,96.2
		c1,0,1.9-0.2,2.8-0.5c0.9-0.4,1.6-0.8,2.1-1.4c0.6-0.5,1-1.1,1-1.7v-2.6c-0.7-0.3-1.5-0.5-2.3-0.6c-0.8-0.2-1.6-0.2-2.4-0.2
		c-1.5,0-2.8,0.3-3.7,1c-1,0.7-1.5,1.6-1.5,2.6c0,1,0.4,1.8,1.1,2.5C140.5,95.8,141.4,96.2,142.6,96.2z"/>
	<path class="st1" d="M173.5,98.8c-0.8,0.4-1.8,0.7-2.9,1.1c-1.1,0.4-2.4,0.5-3.6,0.5c-0.8,0-1.6-0.1-2.3-0.3
		c-0.7-0.2-1.4-0.5-1.9-1c-0.5-0.5-1-1-1.3-1.8c-0.3-0.7-0.5-1.6-0.5-2.6V81.5h-3v-4.5h3v-7.5h5.9v7.5h4.8v4.5h-4.8v11.3
		c0,0.8,0.2,1.4,0.6,1.7c0.4,0.3,0.9,0.5,1.6,0.5s1.2-0.1,1.8-0.3c0.6-0.2,1.1-0.4,1.4-0.5L173.5,98.8z"/>
	<path class="st1" d="M183.7,100.5c-2.4,0-4.2-0.8-5.4-2.3c-1.2-1.5-1.9-3.8-1.9-6.8V76.9h5.9v13.2c0,3.6,1.3,5.3,3.8,5.3
		c1.1,0,2.3-0.3,3.3-1c1.1-0.7,1.9-1.7,2.6-3.2V76.9h5.9v16.3c0,0.6,0.1,1.1,0.3,1.3c0.2,0.3,0.6,0.4,1.1,0.4v5
		c-0.6,0.1-1.1,0.2-1.5,0.2c-0.4,0-0.8,0-1.1,0c-1.1,0-1.9-0.2-2.6-0.7c-0.7-0.5-1.1-1.2-1.2-2l-0.1-1.9c-1,1.6-2.4,2.8-4,3.6
		C187.4,100.1,185.6,100.5,183.7,100.5z"/>
	<path class="st1" d="M203.8,67.9h5.9v24.8c0,0.9,0.2,1.5,0.6,2c0.4,0.5,1,0.7,1.8,0.7c0.4,0,0.7-0.1,1.2-0.2
		c0.4-0.1,0.8-0.3,1.2-0.4l0.8,4.5c-0.8,0.4-1.7,0.7-2.8,0.9c-1.1,0.2-2,0.3-2.9,0.3c-1.9,0-3.3-0.5-4.3-1.5c-1-1-1.5-2.4-1.5-4.2
		V67.9z"/>
	<path class="st1" d="M224.2,100.5c-1.1,0-2.2-0.2-3.1-0.6s-1.8-0.9-2.5-1.5s-1.3-1.4-1.7-2.3c-0.4-0.9-0.6-1.9-0.6-2.9
		c0-1.1,0.2-2.1,0.7-3c0.5-0.9,1.2-1.7,2-2.4c0.9-0.6,1.9-1.2,3.1-1.5c1.2-0.4,2.5-0.6,4-0.6c1,0,2,0.1,3,0.3c1,0.2,1.9,0.4,2.6,0.7
		v-1.3c0-1.5-0.4-2.7-1.3-3.5c-0.9-0.8-2.2-1.2-3.9-1.2c-1.2,0-2.4,0.2-3.6,0.7s-2.4,1.1-3.6,1.9l-1.8-3.7c3-2,6.2-3,9.6-3
		c3.3,0,5.9,0.8,7.7,2.4c1.8,1.6,2.8,4,2.8,7.1v7.2c0,0.6,0.1,1.1,0.3,1.3c0.2,0.3,0.6,0.4,1.1,0.4v5c-1,0.2-1.9,0.3-2.6,0.3
		c-1.1,0-2-0.3-2.6-0.7c-0.6-0.5-1-1.2-1.1-2l-0.1-1.3c-1,1.4-2.3,2.4-3.7,3.1S225.8,100.5,224.2,100.5z M225.8,96.2
		c1,0,1.9-0.2,2.8-0.5c0.9-0.4,1.6-0.8,2.1-1.4c0.6-0.5,1-1.1,1-1.7v-2.6c-0.7-0.3-1.5-0.5-2.3-0.6c-0.8-0.2-1.6-0.2-2.4-0.2
		c-1.5,0-2.8,0.3-3.7,1c-1,0.7-1.5,1.6-1.5,2.6c0,1,0.4,1.8,1.1,2.5C223.8,95.8,224.7,96.2,225.8,96.2z"/>
	<path class="st1" d="M256.8,98.8c-0.8,0.4-1.8,0.7-2.9,1.1c-1.1,0.4-2.4,0.5-3.6,0.5c-0.8,0-1.6-0.1-2.3-0.3s-1.4-0.5-1.9-1
		s-1-1-1.3-1.8c-0.3-0.7-0.5-1.6-0.5-2.6V81.5h-3v-4.5h3v-7.5h5.9v7.5h4.8v4.5h-4.8v11.3c0,0.8,0.2,1.4,0.6,1.7
		c0.4,0.3,0.9,0.5,1.6,0.5s1.2-0.1,1.8-0.3c0.6-0.2,1.1-0.4,1.4-0.5L256.8,98.8z"/>
	<path class="st1" d="M259.9,73.7v-5.9h5.9v5.9H259.9z M259.9,100V76.9h5.9V100H259.9z"/>
	<path class="st1" d="M281.8,100.5c-1.9,0-3.6-0.3-5.1-1c-1.5-0.6-2.8-1.5-3.8-2.6c-1-1.1-1.8-2.4-2.4-3.8c-0.6-1.4-0.8-3-0.8-4.5
		c0-1.6,0.3-3.1,0.8-4.6c0.6-1.4,1.4-2.7,2.4-3.8c1-1.1,2.3-2,3.8-2.6c1.5-0.6,3.2-1,5.1-1s3.6,0.3,5,1c1.5,0.6,2.7,1.5,3.8,2.6
		s1.8,2.4,2.4,3.8c0.6,1.4,0.8,3,0.8,4.6c0,1.6-0.3,3.1-0.8,4.5c-0.6,1.4-1.4,2.7-2.4,3.8c-1,1.1-2.3,2-3.8,2.6
		C285.4,100.1,283.7,100.5,281.8,100.5z M275.8,88.5c0,1,0.2,2,0.5,2.8c0.3,0.8,0.7,1.6,1.3,2.2c0.5,0.6,1.2,1.1,1.9,1.4
		c0.7,0.3,1.5,0.5,2.4,0.5s1.6-0.2,2.4-0.5c0.7-0.3,1.4-0.8,1.9-1.4c0.5-0.6,1-1.4,1.3-2.2s0.5-1.8,0.5-2.8c0-1-0.2-1.9-0.5-2.8
		c-0.3-0.9-0.7-1.6-1.3-2.2c-0.5-0.6-1.2-1.1-1.9-1.4c-0.7-0.3-1.5-0.5-2.4-0.5s-1.6,0.2-2.4,0.5c-0.7,0.4-1.4,0.8-1.9,1.5
		c-0.5,0.6-1,1.4-1.3,2.2C275.9,86.6,275.8,87.5,275.8,88.5z"/>
	<path class="st1" d="M319.3,100h-5.9v-13c0-1.9-0.3-3.2-1-4.1c-0.6-0.9-1.5-1.3-2.7-1.3c-0.6,0-1.2,0.1-1.8,0.4
		c-0.6,0.2-1.2,0.6-1.7,1c-0.5,0.4-1,0.9-1.5,1.5c-0.4,0.6-0.8,1.2-1,1.9V100h-5.9V76.9h5.3v4.3c0.9-1.5,2.1-2.6,3.7-3.4
		c1.6-0.8,3.4-1.2,5.5-1.2c1.4,0,2.6,0.3,3.5,0.8c0.9,0.5,1.6,1.2,2.1,2.1c0.5,0.9,0.8,1.8,1,2.9c0.2,1.1,0.3,2.2,0.3,3.3V100z"/>
	<path class="st1" d="M333.2,100.5c-1.9,0-3.8-0.3-5.7-0.9s-3.4-1.5-4.8-2.6l2.2-3.7c1.4,1,2.8,1.8,4.1,2.3c1.3,0.5,2.7,0.8,4,0.8
		c1.2,0,2.1-0.2,2.8-0.7s1-1.1,1-1.9c0-0.8-0.4-1.4-1.2-1.8c-0.8-0.4-2.1-0.8-3.9-1.3c-1.5-0.4-2.8-0.8-3.8-1.2
		c-1.1-0.4-1.9-0.8-2.6-1.3c-0.6-0.5-1.1-1-1.4-1.7c-0.3-0.6-0.4-1.4-0.4-2.3c0-1.2,0.2-2.2,0.7-3.2c0.5-0.9,1.1-1.7,1.9-2.4
		c0.8-0.7,1.8-1.2,2.9-1.5s2.3-0.5,3.6-0.5c1.7,0,3.4,0.3,4.9,0.7c1.5,0.5,2.9,1.3,4.2,2.4l-2.4,3.6c-1.2-0.9-2.3-1.5-3.4-1.9
		c-1.1-0.4-2.2-0.6-3.3-0.6c-1,0-1.8,0.2-2.5,0.6c-0.7,0.4-1,1.1-1,2c0,0.4,0.1,0.7,0.2,1c0.2,0.3,0.4,0.5,0.8,0.7
		c0.4,0.2,0.8,0.4,1.4,0.6c0.6,0.2,1.3,0.4,2.1,0.6c1.6,0.4,2.9,0.8,4.1,1.2c1.1,0.4,2.1,0.9,2.8,1.4c0.7,0.5,1.2,1.1,1.6,1.8
		c0.3,0.7,0.5,1.5,0.5,2.5c0,2.3-0.8,4-2.5,5.4S336.1,100.5,333.2,100.5z"/>
	<path class="st1" d="M347.5,88.3V68.4h5.9v19.8H347.5z M347.5,100v-6.7h5.9v6.7H347.5z"/>
</g>
</svg>
