<?xml version="1.0" encoding="utf-8"?>
<!-- Generator: Adobe Illustrator 24.1.1, SVG Export Plug-In . SVG Version: 6.00 Build 0)  -->
<svg version="1.1" id="Layer_1" xmlns="http://www.w3.org/2000/svg" xmlns:xlink="http://www.w3.org/1999/xlink" x="0px" y="0px"
	 viewBox="0 0 270 50" style="enable-background:new 0 0 270 50;" xml:space="preserve">
<style type="text/css">
	.st0{fill:#6428DC;}
	.st1{fill:#14E15F;}
</style>
<g>
	<path class="st0" d="M77.2,35.8V24.8L72.9,33h-1.8l-4.3-8.2v11.1h-3.3V19.1H67l4.9,9.5l5-9.5h3.5v16.7H77.2z"/>
	<path class="st0" d="M88.1,19.1H91l6.4,16.7H94l-1.6-4.2h-5.8l-1.5,4.2h-3.3L88.1,19.1z M91.9,29.4l-2.3-6.6l-2.4,6.6H91.9z"/>
	<path class="st0" d="M108.6,23.5c-0.1-0.1-0.3-0.3-0.6-0.4c-0.3-0.2-0.6-0.4-1.1-0.6c-0.4-0.2-0.9-0.3-1.4-0.5
		c-0.5-0.1-1-0.2-1.5-0.2c-0.9,0-1.6,0.2-2,0.5c-0.4,0.3-0.7,0.8-0.7,1.4c0,0.3,0.1,0.6,0.2,0.9c0.2,0.2,0.4,0.4,0.7,0.6
		c0.3,0.2,0.7,0.3,1.2,0.5c0.5,0.1,1,0.3,1.7,0.4c0.8,0.2,1.6,0.5,2.2,0.7c0.7,0.3,1.2,0.6,1.7,0.9c0.5,0.4,0.8,0.8,1.1,1.4
		c0.3,0.5,0.4,1.2,0.4,1.9c0,0.9-0.2,1.7-0.5,2.3c-0.3,0.6-0.8,1.2-1.4,1.5c-0.6,0.4-1.2,0.7-2,0.9c-0.7,0.2-1.5,0.3-2.3,0.3
		c-1.3,0-2.5-0.2-3.7-0.6c-1.2-0.4-2.3-0.9-3.3-1.6l1.4-2.8c0.1,0.1,0.4,0.3,0.8,0.6c0.4,0.2,0.8,0.5,1.3,0.7
		c0.5,0.2,1.1,0.4,1.7,0.6c0.6,0.2,1.2,0.2,1.9,0.2c1.8,0,2.7-0.6,2.7-1.7c0-0.4-0.1-0.7-0.3-0.9c-0.2-0.3-0.5-0.5-0.9-0.7
		c-0.4-0.2-0.8-0.4-1.4-0.5c-0.5-0.2-1.1-0.3-1.8-0.5c-0.8-0.2-1.5-0.5-2.1-0.7c-0.6-0.3-1.1-0.6-1.5-0.9c-0.4-0.4-0.7-0.8-0.9-1.2
		c-0.2-0.5-0.3-1-0.3-1.7c0-0.8,0.2-1.6,0.5-2.3c0.3-0.7,0.8-1.2,1.3-1.6c0.6-0.4,1.2-0.8,1.9-1c0.7-0.2,1.5-0.3,2.4-0.3
		c1.2,0,2.3,0.2,3.3,0.6c1,0.4,1.9,0.8,2.6,1.3L108.6,23.5z"/>
	<path class="st0" d="M125,22h-5.4v13.9h-3.2V22H111v-2.9H125V22z"/>
	<path class="st0" d="M138.1,33v2.9h-11.6V19.1h11.4V22h-8.2v4h7v2.6h-7V33H138.1z"/>
	<path class="st0" d="M140,35.8V19.1h7.4c0.8,0,1.5,0.2,2.1,0.5c0.7,0.3,1.2,0.7,1.7,1.3c0.5,0.5,0.8,1.1,1.1,1.8
		c0.3,0.7,0.4,1.3,0.4,2c0,1.1-0.3,2.1-0.8,3c-0.5,0.9-1.3,1.5-2.2,1.9l3.8,6.3h-3.7l-3.4-5.6h-3.2v5.6H140z M143.3,27.4h4.1
		c0.3,0,0.6-0.1,0.8-0.2s0.5-0.3,0.7-0.6c0.2-0.2,0.3-0.5,0.4-0.9c0.1-0.3,0.2-0.7,0.2-1.1c0-0.4-0.1-0.8-0.2-1.1
		c-0.1-0.3-0.3-0.6-0.5-0.9c-0.2-0.2-0.5-0.4-0.7-0.6c-0.3-0.1-0.6-0.2-0.8-0.2h-3.9V27.4z"/>
	<path class="st0" d="M160.5,35.8V19.1h7.1c0.7,0,1.4,0.2,2,0.5c0.6,0.3,1.1,0.7,1.6,1.2c0.4,0.5,0.8,1.1,1,1.7
		c0.2,0.6,0.4,1.3,0.4,1.9c0,0.6-0.1,1.2-0.3,1.8c-0.2,0.6-0.4,1.1-0.8,1.5c-0.3,0.4-0.7,0.8-1.2,1.1c-0.5,0.3-1,0.5-1.5,0.6
		l4.1,6.5h-1.9l-3.9-6.2h-4.9v6.2H160.5z M162.2,28.2h5.5c0.5,0,0.9-0.1,1.3-0.3c0.4-0.2,0.7-0.5,1-0.9c0.3-0.4,0.5-0.8,0.7-1.2
		c0.2-0.5,0.2-0.9,0.2-1.4s-0.1-1-0.3-1.4c-0.2-0.5-0.4-0.9-0.7-1.2c-0.3-0.3-0.7-0.6-1.1-0.8c-0.4-0.2-0.9-0.3-1.3-0.3h-5.3V28.2z"
		/>
	<path class="st0" d="M186.6,34.4v1.5h-11.2V19.1h11v1.5H177v6h8.2V28H177v6.4H186.6z"/>
	<path class="st0" d="M195.4,19.2h1.6l2.4,5.9l2.4-5.9h1.6l-2.9,7.1l3.2,7.6l6.1-14.8h1.8l-7.1,16.7h-1.5l-3.5-8.3l-3.5,8.3h-1.4
		l-7.1-16.7h1.8l6.1,14.8l3.2-7.6L195.4,19.2z"/>
	<path class="st0" d="M218.3,19.1h1.4l7,16.7h-1.7l-2.2-5.2h-7.5l-2.1,5.2h-1.8L218.3,19.1z M222.4,29.3L219,21l-3.4,8.3H222.4z"/>
	<path class="st0" d="M228.5,35.8V19.1h7.1c0.7,0,1.4,0.2,2,0.5c0.6,0.3,1.1,0.7,1.6,1.2c0.4,0.5,0.8,1.1,1,1.7
		c0.2,0.6,0.4,1.3,0.4,1.9c0,0.6-0.1,1.2-0.3,1.8c-0.2,0.6-0.4,1.1-0.8,1.5c-0.3,0.4-0.7,0.8-1.2,1.1c-0.5,0.3-1,0.5-1.5,0.6
		l4.1,6.5H239l-3.9-6.2h-4.9v6.2H228.5z M230.2,28.2h5.5c0.5,0,0.9-0.1,1.3-0.3c0.4-0.2,0.7-0.5,1-0.9c0.3-0.4,0.5-0.8,0.7-1.2
		c0.2-0.5,0.2-0.9,0.2-1.4s-0.1-1-0.3-1.4c-0.2-0.5-0.4-0.9-0.7-1.2c-0.3-0.3-0.7-0.6-1.1-0.8c-0.4-0.2-0.9-0.3-1.3-0.3h-5.3V28.2z"
		/>
	<path class="st0" d="M243.3,35.8V19.1h5.7c1.3,0,2.5,0.2,3.5,0.7c1,0.4,1.8,1,2.5,1.8c0.7,0.8,1.2,1.6,1.5,2.7
		c0.3,1,0.5,2.1,0.5,3.2c0,1.3-0.2,2.4-0.6,3.5c-0.4,1-0.9,1.9-1.6,2.6c-0.7,0.7-1.5,1.3-2.5,1.7c-1,0.4-2.1,0.6-3.3,0.6H243.3z
		 M255.4,27.5c0-1-0.1-1.9-0.4-2.8c-0.3-0.8-0.7-1.6-1.2-2.2c-0.5-0.6-1.2-1.1-2-1.4c-0.8-0.3-1.7-0.5-2.7-0.5h-4v13.8h4
		c1,0,2-0.2,2.7-0.5c0.8-0.4,1.5-0.8,2-1.5c0.5-0.6,0.9-1.4,1.2-2.2C255.2,29.4,255.4,28.4,255.4,27.5z"/>
</g>
<g>
	<polygon class="st0" points="28.6,24 17.8,12.9 10.5,12.9 10.5,23.8 10.5,23.8 10.5,42 17.8,42 17.8,23.7 28.6,34 	"/>
	<g>
		<path class="st1" d="M30.2,42h-7V30.4c0-6.1,1.8-10.8,5.4-13.9c3.3-2.8,7.8-4.2,13.9-4.2v7c-8.7,0-12.3,3.2-12.3,11.1V42z"/>
	</g>
	<path class="st0" d="M42.5,28.6c0-2.1-1.7-3.7-3.7-3.7c-2.1,0-3.7,1.7-3.7,3.7v0V42h7.4V28.6L42.5,28.6
		C42.5,28.6,42.5,28.6,42.5,28.6z"/>
	<path class="st1" d="M46.2,4.8c2.1,0,3.8,1.7,3.8,3.8c0,2.1-1.7,3.8-3.8,3.8h-3.8V8.5C42.5,6.5,44.2,4.8,46.2,4.8z"/>
</g>
</svg>
