<?xml version="1.0" encoding="utf-8"?>
<!-- Generator: Adobe Illustrator 24.1.1, SVG Export Plug-In . SVG Version: 6.00 Build 0)  -->
<svg version="1.1" id="Layer_1" xmlns="http://www.w3.org/2000/svg" xmlns:xlink="http://www.w3.org/1999/xlink" x="0px" y="0px"
	 viewBox="0 0 100 100" style="enable-background:new 0 0 100 100;" xml:space="preserve">
<style type="text/css">
	.st0{fill:#6428DC;}
	.st1{fill:#14E15F;}
</style>
<g>
	<polygon class="st0" points="51.2,49.2 30.6,28 16.7,28 16.7,48.8 16.7,48.8 16.7,83.6 30.6,83.6 30.6,48.6 51.2,68.3 	"/>
	<g>
		<path class="st1" d="M54.2,83.6H40.8V61.4c0-11.7,3.5-20.7,10.4-26.6c6.3-5.4,14.9-8,26.5-8v13.4c-16.7,0-23.5,6.1-23.5,21.2V83.6
			z"/>
	</g>
	<path class="st0" d="M77.7,58c0-3.9-3.2-7.1-7.1-7.1c-3.9,0-7.1,3.2-7.1,7.1v0v25.5h14.2V58L77.7,58C77.7,58,77.7,58,77.7,58z"/>
	<path class="st1" d="M84.8,12.5c4,0,7.2,3.2,7.2,7.2c0,4-3.2,7.2-7.2,7.2h-7.2v-7.2C77.7,15.7,80.9,12.5,84.8,12.5z"/>
</g>
</svg>
