<?xml version="1.0" encoding="utf-8"?>
<!-- Generator: Adobe Illustrator 24.1.1, SVG Export Plug-In . SVG Version: 6.00 Build 0)  -->
<svg version="1.1" id="Layer_1" xmlns="http://www.w3.org/2000/svg" xmlns:xlink="http://www.w3.org/1999/xlink" x="0px" y="0px"
	 viewBox="0 0 50 50" style="enable-background:new 0 0 50 50;" xml:space="preserve">
<style type="text/css">
	.st0{fill:#6428DC;}
</style>
<g>
	<g>
		<path class="st0" d="M23.1,35.8c-7.3,0-13.3-6-13.3-13.3s6-13.3,13.3-13.3s13.3,6,13.3,13.3S30.4,35.8,23.1,35.8z M23.1,11
			c-6.4,0-11.5,5.2-11.5,11.5S16.8,34,23.1,34s11.5-5.2,11.5-11.5S29.4,11,23.1,11z"/>
	</g>
	<g>
		
			<rect x="34.8" y="29.7" transform="matrix(0.7071 -0.7071 0.7071 0.7071 -14.5109 35.5615)" class="st0" width="1.8" height="11.1"/>
	</g>
	<g>
		<path class="st0" d="M23.1,24.7c-3.1,0-5.6-2.5-5.6-5.6s2.5-5.6,5.6-5.6s5.6,2.5,5.6,5.6S26.2,24.7,23.1,24.7z M23.1,15.2
			c-2.1,0-3.9,1.7-3.9,3.9s1.7,3.9,3.9,3.9s3.9-1.7,3.9-3.9S25.2,15.2,23.1,15.2z"/>
	</g>
	<g>
		<g>
			<path class="st0" d="M23,22.9c-3.1,0-6.2,1.3-8.5,3.7c0.3,0.6,0.6,1.1,1,1.6c0.1-0.1,0.2-0.2,0.3-0.3c2-2,4.6-3.2,7.2-3.2
				c2.8,0,5.5,1.2,7.5,3.5l0,0c0.4-0.5,0.7-1,0.9-1.5C29.2,24.3,26.2,22.9,23,22.9z"/>
		</g>
	</g>
</g>
</svg>
