<?xml version="1.0" encoding="utf-8"?>
<!-- Generator: Adobe Illustrator 24.1.1, SVG Export Plug-In . SVG Version: 6.00 Build 0)  -->
<svg version="1.1" id="Layer_1" xmlns="http://www.w3.org/2000/svg" xmlns:xlink="http://www.w3.org/1999/xlink" x="0px" y="0px"
	 viewBox="0 0 50 50" style="enable-background:new 0 0 50 50;" xml:space="preserve">
<style type="text/css">
	.st0{fill:#6428DC;}
</style>
<g>
	<g>
		<polygon class="st0" points="31.6,44.9 24.9,40 18.2,44.9 18.2,32 20,32 20,41.4 24.9,37.8 29.8,41.4 29.8,32 31.6,32 		"/>
	</g>
	<g>
		<path class="st0" d="M24.9,34c-7.8,0-14.1-6.3-14.1-14.1S17.1,5.8,24.9,5.8S39,12.1,39,19.9C38.9,27.7,32.6,34,24.9,34z M24.9,7.7
			c-6.8,0-12.3,5.5-12.3,12.3s5.5,12.3,12.3,12.3S37.2,26.8,37.2,20S31.7,7.7,24.9,7.7z"/>
	</g>
	<g>
		<path class="st0" d="M30.4,27.4l-5.5-2.9l-5.5,2.9l1.1-6.1L16,17l6.2-0.9l2.8-5.6l2.8,5.6L34,17l-4.5,4.3L30.4,27.4z M24.9,22.8
			l3.5,1.8l-0.7-3.9l2.8-2.8l-3.9-0.6l-1.8-3.6L23,17.3l-3.9,0.6l2.8,2.8l-0.7,3.9L24.9,22.8z"/>
	</g>
</g>
</svg>
