<?xml version="1.0" encoding="utf-8"?>
<!-- Generator: Adobe Illustrator 24.1.1, SVG Export Plug-In . SVG Version: 6.00 Build 0)  -->
<svg version="1.1" id="Layer_1" xmlns="http://www.w3.org/2000/svg" xmlns:xlink="http://www.w3.org/1999/xlink" x="0px" y="0px"
	 viewBox="0 0 50 50" style="enable-background:new 0 0 50 50;" xml:space="preserve">
<style type="text/css">
	.st0{fill:#FFFFFF;}
</style>
<path class="st0" d="M41.3,38.5L34,31.3c1.9-2.4,3.1-5.5,3.1-8.8c0-7.7-6.3-14-14.1-14S9,14.8,9,22.5s6.3,14,14.1,14
	c3.2,0,6.2-1.1,8.6-2.9l7.3,7.3L41.3,38.5z M33.8,22.5c0,5.9-4.8,10.8-10.7,10.8c-5.9,0-10.8-4.8-10.8-10.8s4.8-10.8,10.8-10.8
	C29,11.8,33.8,16.6,33.8,22.5z"/>
</svg>
